<?xml version="1.0" encoding="UTF-8" standalone="no"?>
<svg width="352.778mm" height="352.778mm"
 viewBox="-500 -500 1000 1000"
 xmlns="http://www.w3.org/2000/svg" xmlns:xlink="http://www.w3.org/1999/xlink" version="1.2" baseProfile="tiny">
<title>Qt Vector Drawing</title>
<desc>Created with Qt Vector Drawing App</desc>
<defs>
</defs>
<g fill="none" stroke="black" stroke-width="1" fill-rule="evenodd" stroke-linecap="square" stroke-linejoin="bevel" >

<g fill="none" stroke="#000000" stroke-opacity="1" stroke-width="1" stroke-linecap="square" stroke-linejoin="bevel" transform="matrix(1,0,0,1,0,0)"
font-family="Segoe UI" font-size="9" font-weight="400" font-style="normal" 
>
</g>

<g fill="none" stroke="#000000" stroke-opacity="1" stroke-width="1" stroke-linecap="square" stroke-linejoin="bevel" transform="matrix(1,0,0,1,0,0)"
font-family="Segoe UI" font-size="9" font-weight="400" font-style="normal" 
>
</g>

<g fill="none" stroke="#000000" stroke-opacity="1" stroke-width="1" stroke-linecap="square" stroke-linejoin="bevel" transform="matrix(1,0,0,1,500,500)"
font-family="Segoe UI" font-size="9" font-weight="400" font-style="normal" 
>
</g>

<g fill="#ffffff" fill-opacity="1" stroke="none" transform="matrix(1,0,0,1,500,500)"
font-family="Segoe UI" font-size="9" font-weight="400" font-style="normal" 
>
<rect x="-500" y="-500" width="1000" height="1000"/>
</g>

<g fill="none" stroke="#000000" stroke-opacity="1" stroke-width="1" stroke-linecap="square" stroke-linejoin="bevel" transform="matrix(1,0,0,1,500,500)"
font-family="Segoe UI" font-size="9" font-weight="400" font-style="normal" 
>
</g>

<g fill="none" stroke="#000000" stroke-opacity="1" stroke-width="1" stroke-linecap="square" stroke-linejoin="bevel" transform="matrix(1,0,0,1,500,500)"
font-family="Segoe UI" font-size="9" font-weight="400" font-style="normal" 
>
</g>

<g fill="#000000" fill-opacity="1" stroke="#000000" stroke-opacity="1" stroke-width="0.5" stroke-linecap="square" stroke-linejoin="bevel" transform="matrix(1,0,0,1,500,500)"
font-family="Segoe UI" font-size="9" font-weight="400" font-style="normal" 
>
<path vector-effect="none" fill-rule="evenodd" d="M-213.373,-124.531 L-195.355,-103.938 L-194.936,-103.46 L-194.578,-102.929 L-194.29,-102.356 L-194.291,-102.354 L-187.052,-87.874 L-180.5,-70.113 L-180.5,-52.231 L-180.615,-51.489 L-180.83,-50.792 L-180.831,-50.794 L-192.831,-11.794 L-193.496,-9.628 L-195.112,-7.883 L-197.19,-7.043 L-197.193,-7.045 L-211.522,-1.262 L-227.957,0.978 L-244.674,-0.53 L-245.245,-0.581 L-245.796,-0.695 L-246.319,-0.865 L-246.318,-0.867 L-286.318,-13.867 L-286.847,-14.037 L-287.348,-14.265 L-287.816,-14.542 L-287.815,-14.543 L-310.915,-28.193 L-311.834,-29.117 L-312.479,-30.219 L-312.478,-30.22 L-318.352,-40.29 L-328.354,-45.291 L-329.079,-45.653 L-329.736,-46.13 L-330.303,-46.696 L-331.482,-47.875 L-334.37,-46.44 L-338.871,-47.952 L-340.715,-51.661 L-346.589,-63.476 L-347.856,-76.994 L-344.179,-89.168 L-344.009,-89.739 L-343.772,-90.278 L-343.479,-90.779 L-343.478,-90.779 L-329.963,-113.947 L-299.237,-127.551 L-274.14,-131.412 L-274.023,-131.431 L-273.905,-131.446 L-273.788,-131.459 L-273.785,-131.458 L-247.323,-134.244 L-213.373,-124.531 M-272.036,-116.559 L-294.986,-113.029 L-319.452,-102.196 L-330.076,-83.982 L-332.648,-75.469 L-331.915,-67.654 L-329.717,-63.232 L-325.625,-63.232 L-320.557,-58.164 L-309.645,-52.708 L-308.34,-52.055 L-307.253,-51.033 L-306.52,-49.78 L-306.521,-49.779 L-300.503,-39.462 L-280.896,-27.877 L-242.484,-15.393 L-228.3,-14.113 L-215.402,-15.871 L-206.118,-19.617 L-195.5,-54.126 L-195.5,-67.435 L-200.838,-81.906 L-207.278,-94.786 L-221.75,-111.325 L-248.649,-119.021 L-272.036,-116.559"/>
</g>

<g fill="#ff00ff" fill-opacity="1" stroke="#ff00ff" stroke-opacity="1" stroke-width="1" stroke-linecap="square" stroke-linejoin="bevel" transform="matrix(1,0,0,1,500,500)"
font-family="Segoe UI" font-size="9" font-weight="400" font-style="normal" 
>
<rect x="-213.873" y="-125.031" width="1" height="1"/>
</g>

<g fill="#000000" fill-opacity="1" stroke="#000000" stroke-opacity="1" stroke-width="0.5" stroke-linecap="square" stroke-linejoin="bevel" transform="matrix(1,0,0,1,500,500)"
font-family="Segoe UI" font-size="9" font-weight="400" font-style="normal" 
>
</g>

<g fill="none" stroke="#000000" stroke-opacity="1" stroke-width="1" stroke-linecap="square" stroke-linejoin="bevel" transform="matrix(1,0,0,1,500,500)"
font-family="Segoe UI" font-size="9" font-weight="400" font-style="normal" 
>
</g>

<g fill="none" stroke="#000000" stroke-opacity="1" stroke-width="1" stroke-linecap="square" stroke-linejoin="bevel" transform="matrix(1,0,0,1,500,500)"
font-family="Segoe UI" font-size="9" font-weight="400" font-style="normal" 
>
</g>

<g fill="#ff0000" fill-opacity="1" stroke="#d40000" stroke-opacity="1" stroke-width="0.5" stroke-linecap="square" stroke-linejoin="bevel" transform="matrix(1,0,0,1,500,500)"
font-family="Segoe UI" font-size="9" font-weight="400" font-style="normal" 
>
<path vector-effect="none" fill-rule="evenodd" d="M-245.9,-117.1 L-241.9,-117.1 L-241.9,-116.1 L-238.9,-116.1 L-238.9,-115.1 L-234.9,-115.1 L-234.9,-114.1 L-231.9,-114.1 L-231.9,-113.1 L-227.9,-113.1 L-227.9,-112.1 L-224.9,-112.1 L-224.9,-111.1 L-221.9,-111.1 L-221.9,-110.1 L-220.9,-110.1 L-220.9,-109.1 L-219.9,-109.1 L-219.9,-108.1 L-218.9,-108.1 L-218.9,-107.1 L-217.9,-107.1 L-217.9,-106.1 L-216.9,-106.1 L-216.9,-105.1 L-216.9,-104.1 L-215.9,-104.1 L-215.9,-103.1 L-214.9,-103.1 L-214.9,-102.1 L-213.9,-102.1 L-213.9,-101.1 L-212.9,-101.1 L-212.9,-100.1 L-211.9,-100.1 L-211.9,-99.1 L-210.9,-99.1 L-210.9,-98.1 L-209.9,-98.1 L-209.9,-97.1 L-209.9,-96.1 L-208.9,-96.1 L-208.9,-95.1 L-207.9,-95.1 L-207.9,-94.1 L-206.9,-94.1 L-206.9,-93.1 L-206.9,-92.1 L-205.9,-92.1 L-205.9,-91.1 L-205.9,-90.1 L-204.9,-90.1 L-204.9,-89.1 L-204.9,-88.1 L-203.9,-88.1 L-203.9,-87.1 L-203.9,-86.1 L-202.9,-86.1 L-202.9,-85.1 L-202.9,-84.1 L-201.9,-84.1 L-201.9,-83.1 L-201.9,-82.1 L-200.9,-82.1 L-200.9,-81.1 L-200.9,-80.1 L-200.9,-79.1 L-199.9,-79.1 L-199.9,-78.1 L-199.9,-77.1 L-199.9,-76.1 L-198.9,-76.1 L-198.9,-75.1 L-198.9,-74.1 L-197.9,-74.1 L-197.9,-73.1 L-197.9,-72.1 L-197.9,-71.1 L-196.9,-71.1 L-196.9,-70.1 L-196.9,-69.1 L-196.9,-68.1 L-195.9,-68.1 L-195.9,-67.1 L-195.9,-66.1 L-195.9,-65.099 L-195.9,-64.099 L-195.9,-63.1 L-195.9,-62.1 L-195.9,-61.1 L-195.9,-60.1 L-195.9,-59.1 L-195.9,-58.1 L-195.9,-57.1 L-195.9,-56.1 L-195.9,-55.1 L-195.9,-54.1 L-195.9,-52.9 L-196.9,-52.9 L-196.9,-52.1 L-196.9,-51.1 L-196.9,-49.9 L-197.9,-49.9 L-197.9,-49.1 L-197.9,-48.1 L-197.9,-46.9 L-198.9,-46.9 L-198.9,-46.1 L-198.9,-45.1 L-198.9,-43.9 L-199.9,-43.9 L-199.9,-43.1 L-199.9,-42.1 L-199.9,-41.1 L-199.9,-39.9 L-200.9,-39.9 L-200.9,-39.1 L-200.9,-38.1 L-200.9,-36.9 L-201.9,-36.9 L-201.9,-36.1 L-201.9,-35.1 L-201.9,-33.9 L-202.9,-33.9 L-202.9,-33.1 L-202.9,-32.1 L-202.9,-30.9 L-203.9,-30.9 L-203.9,-30.1 L-203.9,-29.1 L-203.9,-28.1 L-203.9,-26.9 L-204.9,-26.9 L-204.9,-26.1 L-204.9,-25.1 L-204.9,-23.9 L-205.9,-23.9 L-205.9,-23.1 L-205.9,-22.1 L-205.9,-20.9 L-206.9,-20.9 L-206.9,-19.9 L-207.9,-19.9 L-207.9,-18.9 L-210.9,-18.9 L-210.9,-17.9 L-212.9,-17.9 L-212.9,-16.9 L-215.9,-16.9 L-215.9,-15.9 L-223.9,-15.9 L-223.9,-14.9 L-235.1,-14.9 L-235.1,-15.9 L-244.1,-15.9 L-244.1,-16.9 L-247.1,-16.9 L-247.1,-17.9 L-250.1,-17.9 L-250.1,-18.9 L-253.1,-18.9 L-253.1,-19.9 L-256.1,-19.9 L-256.1,-20.9 L-259.1,-20.9 L-259.1,-21.9 L-262.1,-21.9 L-262.1,-22.9 L-265.1,-22.9 L-265.1,-23.9 L-268.1,-23.9 L-268.1,-24.9 L-271.1,-24.9 L-271.1,-25.9 L-274.1,-25.9 L-274.1,-26.9 L-277.1,-26.9 L-277.1,-27.9 L-281.1,-27.9 L-281.1,-28.9 L-282.1,-28.9 L-282.1,-29.9 L-284.1,-29.9 L-284.1,-30.9 L-286.1,-30.9 L-286.1,-31.9 L-287.1,-31.9 L-287.1,-32.9 L-289.1,-32.9 L-289.1,-33.9 L-291.1,-33.9 L-291.1,-34.9 L-292.1,-34.9 L-292.1,-35.9 L-294.1,-35.9 L-294.1,-36.9 L-296.1,-36.9 L-296.1,-37.9 L-298.1,-37.9 L-298.1,-38.9 L-299.1,-38.9 L-299.1,-39.9 L-300.1,-39.9 L-300.1,-40.9 L-301.1,-40.9 L-301.1,-41.9 L-302.1,-41.9 L-302.1,-42.9 L-302.1,-43.9 L-303.1,-43.9 L-303.1,-44.9 L-303.1,-45.9 L-304.1,-45.9 L-304.1,-46.9 L-304.1,-47.9 L-305.1,-47.9 L-305.1,-48.9 L-306.1,-48.9 L-306.1,-49.9 L-306.1,-50.9 L-307.1,-50.9 L-307.1,-51.9 L-308.1,-51.9 L-308.1,-52.9 L-310.1,-52.9 L-310.1,-53.9 L-312.1,-53.9 L-312.1,-54.9 L-314.1,-54.9 L-314.1,-55.9 L-316.1,-55.9 L-316.1,-56.9 L-318.1,-56.9 L-318.1,-57.9 L-320.1,-57.9 L-320.1,-58.9 L-321.1,-58.9 L-321.1,-59.9 L-322.1,-59.9 L-322.1,-60.9 L-323.1,-60.9 L-323.1,-61.9 L-324.1,-61.9 L-324.1,-62.9 L-325.1,-62.9 L-325.1,-63.9 L-330.1,-63.9 L-330.1,-64.9 L-330.1,-65.9 L-331.1,-65.9 L-331.1,-66.9 L-331.1,-67.9 L-331.1,-68.9 L-331.1,-69.9 L-331.1,-70.9 L-332.1,-70.9 L-332.1,-71.9 L-332.1,-72.9 L-332.1,-73.9 L-332.1,-74.9 L-332.1,-75.9 L-332.1,-77.1 L-331.1,-77.1 L-331.1,-77.9 L-331.1,-78.9 L-331.1,-80.1 L-330.1,-80.1 L-330.1,-80.9 L-330.1,-81.9 L-330.1,-83.1 L-329.1,-83.1 L-329.1,-83.9 L-329.1,-85.1 L-328.1,-85.1 L-328.1,-85.9 L-328.1,-87.1 L-327.1,-87.1 L-327.1,-87.9 L-327.1,-89.1 L-326.1,-89.1 L-326.1,-89.9 L-326.1,-91.1 L-325.1,-91.1 L-325.1,-92.1 L-324.1,-92.1 L-324.1,-92.9 L-324.1,-94.1 L-323.1,-94.1 L-323.1,-94.9 L-323.1,-96.1 L-322.1,-96.1 L-322.1,-97.1 L-321.1,-97.1 L-321.1,-97.9 L-321.1,-99.1 L-320.1,-99.1 L-320.1,-99.9 L-320.1,-101.1 L-319.1,-101.1 L-319.1,-102.1 L-317.1,-102.1 L-317.1,-103.1 L-315.1,-103.1 L-315.1,-104.1 L-313.1,-104.1 L-313.1,-105.1 L-310.1,-105.1 L-310.1,-106.1 L-308.1,-106.1 L-308.1,-107.1 L-306.1,-107.1 L-306.1,-108.1 L-304.1,-108.1 L-304.1,-109.1 L-301.1,-109.1 L-301.1,-110.1 L-299.1,-110.1 L-299.1,-111.1 L-297.1,-111.1 L-297.1,-112.1 L-294.1,-112.1 L-294.1,-113.1 L-287.1,-113.1 L-287.1,-114.1 L-281.1,-114.1 L-281.1,-115.1 L-274.1,-115.1 L-274.1,-116.1 L-265.1,-116.1 L-265.1,-117.1 L-256.1,-117.1 L-256.1,-118.1 L-245.9,-118.1 L-245.9,-117.1"/>
</g>

<g fill="none" stroke="#000000" stroke-opacity="1" stroke-width="1" stroke-linecap="square" stroke-linejoin="bevel" transform="matrix(1,0,0,1,500,500)"
font-family="Segoe UI" font-size="9" font-weight="400" font-style="normal" 
>
</g>

<g fill="none" stroke="#000000" stroke-opacity="1" stroke-width="1" stroke-linecap="square" stroke-linejoin="bevel" transform="matrix(1,0,0,1,0,0)"
font-family="Segoe UI" font-size="9" font-weight="400" font-style="normal" 
>
</g>
</g>
</svg>
